# Blender v2.78 (sub 0) OBJ File: ''
# www.blender.org
mtllib crystalshard_1.mtl
o Crystal_Cube.001
v 0.131063 0.551158 0.266248
v 0.146815 0.598015 0.083876
v -0.022109 0.095535 -0.059817
v -0.037861 0.048678 0.122554
v 0.318942 0.540149 0.083876
v 0.150019 0.037670 -0.059817
v 0.303190 0.493293 0.266248
v 0.134266 -0.009187 0.122554
v 0.264870 0.664242 0.208975
vt 0.0000 0.0000
vt 1.0000 0.0000
vt 1.0000 1.0000
vt 0.0000 1.0000
vt 0.0000 0.0000
vt 1.0000 0.0000
vt 1.0000 1.0000
vt 0.0000 1.0000
vt 0.0000 0.0000
vt 1.0000 0.0000
vt 1.0000 1.0000
vt 0.0000 1.0000
vt 0.0000 0.0000
vt 1.0000 0.0000
vt 1.0000 1.0000
vt 0.0000 1.0000
vt 0.0000 0.0000
vt 1.0000 0.0000
vt 1.0000 1.0000
vn -0.9479 0.3187 0.0000
vn 0.0834 0.2480 -0.9652
vn 0.9479 -0.3187 0.0000
vn -0.0834 -0.2480 0.9652
vn -0.3076 -0.9149 -0.2616
vn 0.1138 0.3385 0.9341
vn 0.9528 0.2639 0.1501
vn 0.2485 0.7393 -0.6259
vn -0.5999 0.7859 0.1501
usemtl Material.001
s off
f 1/1/1 2/2/1 3/3/1 4/4/1
f 2/5/2 5/6/2 6/7/2 3/8/2
f 5/9/3 7/10/3 8/11/3 6/12/3
f 7/13/4 1/14/4 4/15/4 8/16/4
f 4/17/5 3/18/5 6/7/5 8/16/5
f 1/1/6 7/10/6 9/19/6
f 7/13/7 5/6/7 9/19/7
f 5/9/8 2/2/8 9/19/8
f 2/5/9 1/14/9 9/19/9
o Crystal_Cube.000
v -0.115971 0.745151 0.118584
v -0.115971 0.745151 -0.133353
v -0.115971 0.012825 -0.133354
v -0.115971 0.012825 0.118584
v 0.126154 0.745151 -0.133353
v 0.126154 0.012825 -0.133354
v 0.126154 0.745151 0.118584
v 0.126154 0.012825 0.118584
v 0.005092 0.917983 -0.007385
vt 0.0000 0.0000
vt 1.0000 0.0000
vt 1.0000 1.0000
vt 0.0000 1.0000
vt 0.0000 0.0000
vt 1.0000 0.0000
vt 1.0000 1.0000
vt 0.0000 1.0000
vt 0.0000 0.0000
vt 1.0000 0.0000
vt 1.0000 1.0000
vt 0.0000 1.0000
vt 0.0000 0.0000
vt 1.0000 0.0000
vt 1.0000 1.0000
vt 0.0000 1.0000
vt 0.0000 0.0000
vt 1.0000 0.0000
vt 1.0000 1.0000
vn -1.0000 0.0000 0.0000
vn 0.0000 0.0000 -1.0000
vn 1.0000 0.0000 0.0000
vn 0.0000 -0.0000 1.0000
vn 0.0000 -1.0000 -0.0000
vn 0.0000 0.5890 0.8081
vn 0.8191 0.5737 0.0000
vn 0.0000 0.5890 -0.8081
vn -0.8191 0.5737 0.0000
usemtl Material.002
s off
f 10/20/10 11/21/10 12/22/10 13/23/10
f 11/24/11 14/25/11 15/26/11 12/27/11
f 14/28/12 16/29/12 17/30/12 15/31/12
f 16/32/13 10/33/13 13/34/13 17/35/13
f 13/36/14 12/37/14 15/26/14 17/35/14
f 10/20/15 16/29/15 18/38/15
f 16/32/16 14/25/16 18/38/16
f 14/28/17 11/21/17 18/38/17
f 11/24/18 10/33/18 18/38/18
o Crystal_Cube.002
v -0.142443 0.551158 -0.286181
v -0.157095 0.598015 -0.103718
v 0.012692 0.095535 0.038954
v 0.027344 0.048678 -0.143509
v -0.329219 0.540149 -0.102679
v -0.159432 0.037670 0.039992
v -0.314568 0.493293 -0.285143
v -0.144780 -0.009187 -0.142471
v -0.275902 0.664242 -0.228102
vt 0.0000 0.0000
vt 1.0000 0.0000
vt 1.0000 1.0000
vt 0.0000 1.0000
vt 0.0000 0.0000
vt 1.0000 0.0000
vt 1.0000 1.0000
vt 0.0000 1.0000
vt 0.0000 0.0000
vt 1.0000 0.0000
vt 1.0000 1.0000
vt 0.0000 1.0000
vt 0.0000 0.0000
vt 1.0000 0.0000
vt 1.0000 1.0000
vt 0.0000 1.0000
vt 0.0000 0.0000
vt 1.0000 0.0000
vt 1.0000 1.0000
vn 0.9479 0.3187 -0.0057
vn -0.0775 0.2480 0.9657
vn -0.9479 -0.3187 0.0057
vn 0.0775 -0.2480 -0.9657
vn 0.3091 -0.9149 0.2598
vn -0.1194 0.3385 -0.9334
vn -0.9537 0.2639 -0.1443
vn -0.2447 0.7393 0.6274
vn 0.5990 0.7859 -0.1537
usemtl Material.003
s off
f 19/39/19 20/40/19 21/41/19 22/42/19
f 20/43/20 23/44/20 24/45/20 21/46/20
f 23/47/21 25/48/21 26/49/21 24/50/21
f 25/51/22 19/52/22 22/53/22 26/54/22
f 22/55/23 21/56/23 24/45/23 26/54/23
f 19/39/24 25/48/24 27/57/24
f 25/51/25 23/44/25 27/57/25
f 23/47/26 20/40/26 27/57/26
f 20/43/27 19/52/27 27/57/27
o Crystal_Cube.003
v -0.348497 0.477184 0.167940
v -0.256333 0.553547 0.021729
v -0.033671 0.064788 -0.093184
v -0.125834 -0.011575 0.053027
v -0.115936 0.591981 0.130301
v 0.106726 0.103222 0.015388
v -0.208100 0.515618 0.276512
v 0.014563 0.026859 0.161599
v -0.284766 0.649933 0.176241
vt 0.0000 0.0000
vt 1.0000 0.0000
vt 1.0000 1.0000
vt 0.0000 1.0000
vt 0.0000 0.0000
vt 1.0000 0.0000
vt 1.0000 1.0000
vt 0.0000 1.0000
vt 0.0000 0.0000
vt 1.0000 0.0000
vt 1.0000 1.0000
vt 0.0000 1.0000
vt 0.0000 0.0000
vt 1.0000 0.0000
vt 1.0000 1.0000
vt 0.0000 1.0000
vt 0.0000 0.0000
vt 1.0000 0.0000
vt 1.0000 1.0000
vn -0.7731 -0.2116 -0.5979
vn 0.4878 0.4041 -0.7738
vn 0.7731 0.2116 0.5979
vn -0.4878 -0.4041 0.7738
vn 0.4054 -0.8899 -0.2092
vn -0.6330 0.1975 0.7486
vn 0.4007 0.6839 0.6097
vn 0.1554 0.8507 -0.5021
vn -0.8658 0.3372 -0.3697
usemtl Material.004
s off
f 28/58/28 29/59/28 30/60/28 31/61/28
f 29/62/29 32/63/29 33/64/29 30/65/29
f 32/66/30 34/67/30 35/68/30 33/69/30
f 34/70/31 28/71/31 31/72/31 35/73/31
f 31/74/32 30/75/32 33/64/32 35/73/32
f 28/58/33 34/67/33 36/76/33
f 34/70/34 32/63/34 36/76/34
f 32/66/35 29/59/35 36/76/35
f 29/62/36 28/71/36 36/76/36
