# Blender v2.78 (sub 0) OBJ File: ''
# www.blender.org
mtllib crystalshard_1.mtl
o Crystal_Cube.001
v 0.131063 0.551158 0.266248
v 0.146815 0.598015 0.083876
v -0.022109 0.095535 -0.059817
v -0.037861 0.048678 0.122554
v 0.318942 0.540149 0.083876
v 0.150019 0.037670 -0.059817
v 0.303190 0.493293 0.266248
v 0.134266 -0.009187 0.122554
v 0.264870 0.664242 0.208975
vt 0.0000 0.0000
vt 1.0000 0.0000
vt 1.0000 1.0000
vt 0.0000 1.0000
vt 0.0000 0.0000
vt 1.0000 0.0000
vt 1.0000 1.0000
vt 0.0000 1.0000
vt 0.0000 0.0000
vt 1.0000 0.0000
vt 1.0000 1.0000
vt 0.0000 1.0000
vt 0.0000 0.0000
vt 1.0000 0.0000
vt 1.0000 1.0000
vt 0.0000 1.0000
vt 0.0000 0.0000
vt 1.0000 0.0000
vt 1.0000 1.0000
vn -0.9479 0.3187 0.0000
vn 0.0834 0.2480 -0.9652
vn 0.9479 -0.3187 0.0000
vn -0.0834 -0.2480 0.9652
vn -0.3076 -0.9149 -0.2616
vn 0.1138 0.3385 0.9341
vn 0.9528 0.2639 0.1501
vn 0.2485 0.7393 -0.6259
vn -0.5999 0.7859 0.1501
usemtl Material.001
s off
f 1/1/1 2/2/1 3/3/1 4/4/1
f 2/5/2 5/6/2 6/7/2 3/8/2
f 5/9/3 7/10/3 8/11/3 6/12/3
f 7/13/4 1/14/4 4/15/4 8/16/4
f 4/17/5 3/18/5 6/7/5 8/16/5
f 1/1/6 7/10/6 9/19/6
f 7/13/7 5/6/7 9/19/7
f 5/9/8 2/2/8 9/19/8
f 2/5/9 1/14/9 9/19/9
o Crystal_Cube.000
v -0.115971 0.745151 0.118584
v -0.115971 0.745151 -0.133353
v -0.115971 0.012825 -0.133354
v -0.115971 0.012825 0.118584
v 0.126154 0.745151 -0.133353
v 0.126154 0.012825 -0.133354
v 0.126154 0.745151 0.118584
v 0.126154 0.012825 0.118584
v 0.005092 0.917983 -0.007385
vt 0.0000 0.0000
vt 1.0000 0.0000
vt 1.0000 1.0000
vt 0.0000 1.0000
vt 0.0000 0.0000
vt 1.0000 0.0000
vt 1.0000 1.0000
vt 0.0000 1.0000
vt 0.0000 0.0000
vt 1.0000 0.0000
vt 1.0000 1.0000
vt 0.0000 1.0000
vt 0.0000 0.0000
vt 1.0000 0.0000
vt 1.0000 1.0000
vt 0.0000 1.0000
vt 0.0000 0.0000
vt 1.0000 0.0000
vt 1.0000 1.0000
vn -1.0000 0.0000 0.0000
vn 0.0000 0.0000 -1.0000
vn 1.0000 0.0000 0.0000
vn 0.0000 -0.0000 1.0000
vn 0.0000 -1.0000 -0.0000
vn 0.0000 0.5890 0.8081
vn 0.8191 0.5737 0.0000
vn 0.0000 0.5890 -0.8081
vn -0.8191 0.5737 0.0000
usemtl Material.001
s off
f 10/20/10 11/21/10 12/22/10 13/23/10
f 11/24/11 14/25/11 15/26/11 12/27/11
f 14/28/12 16/29/12 17/30/12 15/31/12
f 16/32/13 10/33/13 13/34/13 17/35/13
f 13/36/14 12/37/14 15/26/14 17/35/14
f 10/20/15 16/29/15 18/38/15
f 16/32/16 14/25/16 18/38/16
f 14/28/17 11/21/17 18/38/17
f 11/24/18 10/33/18 18/38/18
